<?xml version="1.0" ?><svg width="64px" height="64px" viewBox="0 0 64 64" id="Layer_1" style="enable-background:new 0 0 64 64;" version="1.1" xml:space="preserve" xmlns="http://www.w3.org/2000/svg" xmlns:xlink="http://www.w3.org/1999/xlink"><g><path d="M18.9,34.3c-0.1-0.1-0.3-0.2-0.4-0.3c-0.3-0.2-0.6-0.3-1-0.3c-0.5,0-1,0-1.5,0c-0.1,0-0.1,0-0.2,0c-0.3,0-0.5,0-0.8,0.2   c-0.2,0.1-0.5,0.2-0.6,0.4c-0.1,0.1-0.2,0.3-0.3,0.4c-0.2,0.3-0.3,0.6-0.3,1c0,0.5,0,1,0,1.5c0,0.1,0,0.1,0,0.2   c0,0.3,0,0.5,0.2,0.8c0.1,0.2,0.2,0.5,0.4,0.6c0.1,0.1,0.3,0.2,0.4,0.3c0.3,0.2,0.6,0.3,1,0.3c0.5,0,1,0,1.5,0c0.1,0,0.1,0,0.2,0   c0.2,0,0.3,0,0.5-0.1c0,0,0,0,0.1,0c0.2-0.1,0.4-0.1,0.5-0.2c0.1-0.1,0.3-0.2,0.4-0.3c0.1-0.1,0.2-0.2,0.3-0.4c0,0,0,0,0,0   c0-0.1,0.1-0.2,0.1-0.2c0,0,0,0,0,0c0,0,0,0,0,0c0-0.1,0.1-0.2,0.1-0.3c0-0.2,0.1-0.3,0.1-0.5c0-0.5,0-1,0-1.5c0-0.1,0-0.1,0-0.2   c0-0.3,0-0.5-0.2-0.8C19.2,34.7,19.1,34.4,18.9,34.3z"/><path d="M27,34.3c-0.1-0.1-0.3-0.2-0.4-0.3c-0.3-0.2-0.6-0.3-1-0.3c-0.5,0-1,0-1.5,0c-0.1,0-0.1,0-0.2,0c-0.3,0-0.5,0-0.8,0.2   c-0.2,0.1-0.5,0.2-0.6,0.4c-0.1,0.1-0.2,0.3-0.3,0.4c-0.2,0.3-0.3,0.6-0.3,1c0,0.5,0,1,0,1.5c0,0.1,0,0.1,0,0.2   c0,0.3,0,0.5,0.2,0.8c0.1,0.2,0.2,0.5,0.4,0.6c0.1,0.1,0.3,0.2,0.4,0.3c0.3,0.2,0.6,0.3,1,0.3c0.5,0,1,0,1.5,0c0.1,0,0.1,0,0.2,0   c0.2,0,0.3,0,0.5-0.1c0,0,0,0,0.1,0c0.2-0.1,0.4-0.1,0.5-0.2c0.1-0.1,0.3-0.2,0.4-0.3c0.1-0.1,0.2-0.2,0.3-0.4c0,0,0,0,0,0   c0-0.1,0.1-0.2,0.1-0.2c0,0,0,0,0,0c0,0,0,0,0,0c0-0.1,0.1-0.2,0.1-0.3c0-0.2,0.1-0.3,0.1-0.5c0-0.5,0-1,0-1.5c0-0.1,0-0.1,0-0.2   c0-0.3,0-0.5-0.2-0.8C27.3,34.7,27.2,34.4,27,34.3z"/><path d="M41.3,41.3c-0.1-0.1-0.3-0.2-0.4-0.3c-0.3-0.2-0.6-0.3-1-0.3c-0.5,0-1,0-1.5,0c-0.1,0-0.1,0-0.2,0c-0.3,0-0.5,0-0.8,0.2   c-0.2,0.1-0.5,0.2-0.6,0.4c-0.1,0.1-0.2,0.3-0.3,0.4c-0.2,0.3-0.3,0.6-0.3,1c0,0.5,0,1,0,1.5c0,0.1,0,0.1,0,0.2   c0,0.3,0,0.5,0.2,0.8c0.1,0.2,0.2,0.5,0.4,0.6c0.1,0.1,0.3,0.2,0.4,0.3c0.3,0.2,0.6,0.3,1,0.3c0.5,0,1,0,1.5,0c0.1,0,0.1,0,0.2,0   c0.2,0,0.3,0,0.5-0.1c0,0,0,0,0.1,0c0.2-0.1,0.4-0.1,0.5-0.2c0.1-0.1,0.3-0.2,0.4-0.3c0.1-0.1,0.2-0.2,0.3-0.4c0,0,0,0,0,0   c0-0.1,0.1-0.2,0.1-0.2c0,0,0,0,0,0c0,0,0,0,0,0c0-0.1,0.1-0.2,0.1-0.3c0-0.2,0.1-0.3,0.1-0.5c0-0.5,0-1,0-1.5c0-0.1,0-0.1,0-0.2   c0-0.3,0-0.5-0.2-0.8C41.6,41.7,41.5,41.5,41.3,41.3z"/><path d="M49.8,41.3c-0.1-0.1-0.3-0.2-0.4-0.3c-0.3-0.2-0.6-0.3-1-0.3c-0.5,0-1,0-1.5,0c-0.1,0-0.1,0-0.2,0c-0.3,0-0.5,0-0.8,0.2   c-0.2,0.1-0.5,0.2-0.6,0.4c-0.1,0.1-0.2,0.3-0.3,0.4c-0.2,0.3-0.3,0.6-0.3,1c0,0.5,0,1,0,1.5c0,0.1,0,0.1,0,0.2   c0,0.3,0,0.5,0.2,0.8c0.1,0.2,0.2,0.5,0.4,0.6c0.1,0.1,0.3,0.2,0.4,0.3c0.3,0.2,0.6,0.3,1,0.3c0.5,0,1,0,1.5,0c0.1,0,0.1,0,0.2,0   c0.2,0,0.3,0,0.5-0.1c0,0,0,0,0.1,0c0.2-0.1,0.4-0.1,0.5-0.2c0.1-0.1,0.3-0.2,0.4-0.3c0.1-0.1,0.2-0.2,0.3-0.4c0,0,0,0,0,0   c0-0.1,0.1-0.2,0.1-0.2c0,0,0,0,0,0c0,0,0,0,0,0c0-0.1,0.1-0.2,0.1-0.3c0-0.2,0.1-0.3,0.1-0.5c0-0.5,0-1,0-1.5c0-0.1,0-0.1,0-0.2   c0-0.3,0-0.5-0.2-0.8C50.1,41.7,50,41.5,49.8,41.3z"/><path d="M49.8,48.4c-0.1-0.1-0.3-0.2-0.4-0.3c-0.3-0.2-0.6-0.3-1-0.3c-0.5,0-1,0-1.5,0c-0.1,0-0.1,0-0.2,0c-0.3,0-0.5,0-0.8,0.2   c-0.2,0.1-0.5,0.2-0.6,0.4c-0.1,0.1-0.2,0.3-0.3,0.4c-0.2,0.3-0.3,0.6-0.3,1c0,0.5,0,1,0,1.5c0,0.1,0,0.1,0,0.2   c0,0.3,0,0.5,0.2,0.8c0.1,0.2,0.2,0.5,0.4,0.6c0.1,0.1,0.3,0.2,0.4,0.3c0.3,0.2,0.6,0.3,1,0.3c0.5,0,1,0,1.5,0c0.1,0,0.1,0,0.2,0   c0.2,0,0.3,0,0.5-0.1c0,0,0,0,0.1,0c0.2-0.1,0.4-0.1,0.5-0.2c0.1-0.1,0.3-0.2,0.4-0.3c0.1-0.1,0.2-0.2,0.3-0.4c0,0,0,0,0,0   c0-0.1,0.1-0.2,0.1-0.2c0,0,0,0,0,0c0,0,0,0,0,0c0-0.1,0.1-0.2,0.1-0.3c0-0.2,0.1-0.3,0.1-0.5c0-0.5,0-1,0-1.5c0-0.1,0-0.1,0-0.2   c0-0.3,0-0.5-0.2-0.8C50.1,48.8,50,48.6,49.8,48.4z"/><path d="M41.2,48.2c-0.1-0.1-0.3-0.2-0.4-0.3c-0.3-0.2-0.6-0.3-1-0.3c-0.5,0-1,0-1.5,0c-0.1,0-0.1,0-0.2,0c-0.3,0-0.5,0-0.8,0.2   c-0.2,0.1-0.5,0.2-0.6,0.4c-0.1,0.1-0.2,0.3-0.3,0.4c-0.2,0.3-0.3,0.6-0.3,1c0,0.5,0,1,0,1.5c0,0.1,0,0.1,0,0.2   c0,0.3,0,0.5,0.2,0.8c0.1,0.2,0.2,0.5,0.4,0.6c0.1,0.1,0.3,0.2,0.4,0.3c0.3,0.2,0.6,0.3,1,0.3c0.5,0,1,0,1.5,0c0.1,0,0.1,0,0.2,0   c0.2,0,0.3,0,0.5-0.1c0,0,0,0,0.1,0c0.2-0.1,0.4-0.1,0.5-0.2c0.1-0.1,0.3-0.2,0.4-0.3c0.1-0.1,0.2-0.2,0.3-0.4c0,0,0,0,0,0   c0-0.1,0.1-0.2,0.1-0.2c0,0,0,0,0,0c0,0,0,0,0,0c0-0.1,0.1-0.2,0.1-0.3c0-0.2,0.1-0.3,0.1-0.5c0-0.5,0-1,0-1.5c0-0.1,0-0.1,0-0.2   c0-0.3,0-0.5-0.2-0.8C41.5,48.6,41.4,48.4,41.2,48.2z"/><path d="M37.1,26.6c0.1,0.1,0.3,0.2,0.4,0.3c0.3,0.2,0.6,0.3,1,0.3c0.5,0,1,0,1.5,0c0.1,0,0.1,0,0.2,0c0.2,0,0.3,0,0.5-0.1   c0,0,0,0,0.1,0c0.2-0.1,0.4-0.1,0.5-0.2c0.1-0.1,0.3-0.2,0.4-0.3c0.1-0.1,0.2-0.2,0.3-0.4c0,0,0,0,0,0c0-0.1,0.1-0.2,0.1-0.2   c0,0,0,0,0,0c0,0,0,0,0,0c0-0.1,0.1-0.2,0.1-0.3c0-0.2,0.1-0.3,0.1-0.5c0-0.5,0-1,0-1.5c0-0.1,0-0.1,0-0.2c0-0.3,0-0.5-0.2-0.8   c-0.1-0.2-0.2-0.5-0.4-0.6c-0.1-0.1-0.3-0.2-0.4-0.3c-0.3-0.2-0.6-0.3-1-0.3c-0.5,0-1,0-1.5,0c-0.1,0-0.1,0-0.2,0   c-0.3,0-0.5,0-0.8,0.2c-0.2,0.1-0.5,0.2-0.6,0.4c-0.1,0.1-0.2,0.3-0.3,0.4c-0.2,0.3-0.3,0.6-0.3,1c0,0.5,0,1,0,1.5   c0,0.1,0,0.1,0,0.2c0,0.3,0,0.5,0.2,0.8C36.8,26.2,36.9,26.4,37.1,26.6z"/><path d="M28.8,26.6c0.1,0.1,0.3,0.2,0.4,0.3c0.3,0.2,0.6,0.3,1,0.3c0.5,0,1,0,1.5,0c0.1,0,0.1,0,0.2,0c0.2,0,0.3,0,0.5-0.1   c0,0,0,0,0.1,0c0.2-0.1,0.4-0.1,0.5-0.2c0.1-0.1,0.3-0.2,0.4-0.3c0.1-0.1,0.2-0.2,0.3-0.4c0,0,0,0,0,0c0-0.1,0.1-0.2,0.1-0.2   c0,0,0,0,0,0c0,0,0,0,0,0c0-0.1,0.1-0.2,0.1-0.3c0-0.2,0.1-0.3,0.1-0.5c0-0.5,0-1,0-1.5c0-0.1,0-0.1,0-0.2c0-0.3,0-0.5-0.2-0.8   c-0.1-0.2-0.2-0.5-0.4-0.6c-0.1-0.1-0.3-0.2-0.4-0.3c-0.3-0.2-0.6-0.3-1-0.3c-0.5,0-1,0-1.5,0c-0.1,0-0.1,0-0.2,0   c-0.3,0-0.5,0-0.8,0.2c-0.2,0.1-0.5,0.2-0.6,0.4c-0.1,0.1-0.2,0.3-0.3,0.4c-0.2,0.3-0.3,0.6-0.3,1c0,0.5,0,1,0,1.5   c0,0.1,0,0.1,0,0.2c0,0.3,0,0.5,0.2,0.8C28.4,26.2,28.6,26.5,28.8,26.6z"/><path d="M27,41.3c-0.1-0.1-0.3-0.2-0.4-0.3c-0.3-0.2-0.6-0.3-1-0.3c-0.5,0-1,0-1.5,0c-0.1,0-0.1,0-0.2,0c-0.3,0-0.5,0-0.8,0.2   c-0.2,0.1-0.5,0.2-0.6,0.4c-0.1,0.1-0.2,0.3-0.3,0.4c-0.2,0.3-0.3,0.6-0.3,1c0,0.5,0,1,0,1.5c0,0.1,0,0.1,0,0.2   c0,0.3,0,0.5,0.2,0.8c0.1,0.2,0.2,0.5,0.4,0.6c0.1,0.1,0.3,0.2,0.4,0.3c0.3,0.2,0.6,0.3,1,0.3c0.5,0,1,0,1.5,0c0.1,0,0.1,0,0.2,0   c0.2,0,0.3,0,0.5-0.1c0,0,0,0,0.1,0c0.2-0.1,0.4-0.1,0.5-0.2c0.1-0.1,0.3-0.2,0.4-0.3c0.1-0.1,0.2-0.2,0.3-0.4c0,0,0,0,0,0   c0-0.1,0.1-0.2,0.1-0.2c0,0,0,0,0,0c0,0,0,0,0,0c0-0.1,0.1-0.2,0.1-0.3c0-0.2,0.1-0.3,0.1-0.5c0-0.5,0-1,0-1.5c0-0.1,0-0.1,0-0.2   c0-0.3,0-0.5-0.2-0.8C27.3,41.7,27.2,41.5,27,41.3z"/><path d="M26.9,48.4c-0.1-0.1-0.3-0.2-0.4-0.3c-0.3-0.2-0.6-0.3-1-0.3c-0.5,0-1,0-1.5,0c-0.1,0-0.1,0-0.2,0c-0.3,0-0.5,0-0.8,0.2   c-0.2,0.1-0.5,0.2-0.6,0.4c-0.1,0.1-0.2,0.3-0.3,0.4c-0.2,0.3-0.3,0.6-0.3,1c0,0.5,0,1,0,1.5c0,0.1,0,0.1,0,0.2   c0,0.3,0,0.5,0.2,0.8c0.1,0.2,0.2,0.5,0.4,0.6c0.1,0.1,0.3,0.2,0.4,0.3c0.3,0.2,0.6,0.3,1,0.3c0.5,0,1,0,1.5,0c0.1,0,0.1,0,0.2,0   c0.2,0,0.3,0,0.5-0.1c0,0,0,0,0.1,0c0.2-0.1,0.4-0.1,0.5-0.2c0.1-0.1,0.3-0.2,0.4-0.3c0.1-0.1,0.2-0.2,0.3-0.4c0,0,0,0,0,0   c0-0.1,0.1-0.2,0.1-0.2c0,0,0,0,0,0c0,0,0,0,0,0c0-0.1,0.1-0.2,0.1-0.3c0-0.2,0.1-0.3,0.1-0.5c0-0.5,0-1,0-1.5c0-0.1,0-0.1,0-0.2   c0-0.3,0-0.5-0.2-0.8C27.2,48.8,27.1,48.6,26.9,48.4z"/><path d="M18.9,48.5c-0.1-0.1-0.3-0.2-0.4-0.3c-0.3-0.2-0.6-0.3-1-0.3c-0.5,0-1,0-1.5,0c-0.1,0-0.1,0-0.2,0c-0.3,0-0.5,0-0.8,0.2   c-0.2,0.1-0.5,0.2-0.6,0.4c-0.1,0.1-0.2,0.3-0.3,0.4c-0.2,0.3-0.3,0.6-0.3,1c0,0.5,0,1,0,1.5c0,0.1,0,0.1,0,0.2   c0,0.3,0,0.5,0.2,0.8c0.1,0.2,0.2,0.5,0.4,0.6c0.1,0.1,0.3,0.2,0.4,0.3c0.3,0.2,0.6,0.3,1,0.3c0.5,0,1,0,1.5,0c0.1,0,0.1,0,0.2,0   c0.2,0,0.3,0,0.5-0.1c0,0,0,0,0.1,0c0.2-0.1,0.4-0.1,0.5-0.2c0.1-0.1,0.3-0.2,0.4-0.3c0.1-0.1,0.2-0.2,0.3-0.4c0,0,0,0,0,0   c0-0.1,0.1-0.2,0.1-0.2c0,0,0,0,0,0c0,0,0,0,0,0c0-0.1,0.1-0.2,0.1-0.3c0-0.2,0.1-0.3,0.1-0.5c0-0.5,0-1,0-1.5c0-0.1,0-0.1,0-0.2   c0-0.3,0-0.5-0.2-0.8C19.2,48.9,19.1,48.6,18.9,48.5z"/><path d="M18.9,41.3c-0.1-0.1-0.3-0.2-0.4-0.3c-0.3-0.2-0.6-0.3-1-0.3c-0.5,0-1,0-1.5,0c-0.1,0-0.1,0-0.2,0c-0.3,0-0.5,0-0.8,0.2   c-0.2,0.1-0.5,0.2-0.6,0.4c-0.1,0.1-0.2,0.3-0.3,0.4c-0.2,0.3-0.3,0.6-0.3,1c0,0.5,0,1,0,1.5c0,0.1,0,0.1,0,0.2   c0,0.3,0,0.5,0.2,0.8c0.1,0.2,0.2,0.5,0.4,0.6c0.1,0.1,0.3,0.2,0.4,0.3c0.3,0.2,0.6,0.3,1,0.3c0.5,0,1,0,1.5,0c0.1,0,0.1,0,0.2,0   c0.2,0,0.3,0,0.5-0.1c0,0,0,0,0.1,0c0.2-0.1,0.4-0.1,0.5-0.2c0.1-0.1,0.3-0.2,0.4-0.3c0.1-0.1,0.2-0.2,0.3-0.4c0,0,0,0,0,0   c0-0.1,0.1-0.2,0.1-0.2c0,0,0,0,0,0c0,0,0,0,0,0c0-0.1,0.1-0.2,0.1-0.3c0-0.2,0.1-0.3,0.1-0.5c0-0.5,0-1,0-1.5c0-0.1,0-0.1,0-0.2   c0-0.3,0-0.5-0.2-0.8C19.2,41.7,19.1,41.5,18.9,41.3z"/><path d="M57.4,54.4c-0.3,0-0.5,0-0.8,0c0-4.2,0-8.4,0-12.5c0-1.6,0.1-3.3,0-4.9c-0.1-2-1.3-3.8-3.3-4.3c-0.7-0.2-1.4-0.1-2.1-0.1   c-0.9,0-1.7,0-2.6,0c0-3,0-6,0-9c0-1.6-0.1-3-1.3-4.3c-1.1-1.2-2.3-2.3-3.5-3.5c-1.6-1.6-3.1-3.1-4.7-4.7c-1.3-1.3-2.5-2.9-4.6-2.4   c-1.3,0.3-2.5,1.9-3.5,2.9c-1.6,1.6-3.2,3.2-4.8,4.8c-1.1,1.1-2.4,2.2-3.4,3.4c-0.6,0.6-0.8,1.4-0.9,2.3c-2.8-1.2-5.1,2-6.8,3.7   c-2.1,2.1-4.2,4.2-6.3,6.3c-0.9,0.9-1.6,1.8-1.6,3.1c0,0.6,0,1.3,0,1.9c0,5.7,0,11.5,0,17.2c0,0,0,0.1,0,0.1c-0.3,0-0.7,0-1,0   c-2.6,0-2.6,4,0,4c5.8,0,11.5,0,17.3,0c9.2,0,18.4,0,27.5,0c2.1,0,4.3,0,6.4,0C60,58.4,60,54.4,57.4,54.4z M35.8,12.5   C35.8,12.5,35.8,12.5,35.8,12.5C36,12.2,36.2,12.4,35.8,12.5z M26.5,21.8c0.6-0.6,1.1-1.1,1.7-1.7c1.5-1.5,3-3,4.5-4.5   c0.6-0.6,1.3-1.3,1.9-1.9c0.2-0.2,0.5-0.4,0.7-0.7c0.3,0.3,0.6,0.5,0.8,0.7c1.4,1.4,2.9,2.9,4.3,4.3c1.2,1.2,2.5,2.5,3.7,3.7   c0.1,0.1,0.3,0.2,0.4,0.4c0.1,0.1,0.1,0.1,0.1,0.1c0.1,0.3,0,0.8,0,1.1c0,3.1,0,6.2,0,9.3c-2.7,0-5.4,0-8.1,0c-1.2,0-2.4,0-3.4,0.3   c-0.1-0.1-0.1-0.2-0.2-0.3c-1.7-1.8-3.5-3.5-5.3-5.3c-0.5-0.5-1.1-1.1-1.6-1.6c0-0.6,0-1.2,0-1.8c0-0.4,0-0.9,0-1.3c0,0,0,0,0-0.1   C26.2,22.2,26.4,21.9,26.5,21.8z M29.9,35.2C29.8,35,30,35,29.9,35.2L29.9,35.2z M11.2,35.3C11.2,35.1,11.3,35.2,11.2,35.3   L11.2,35.3z M12.6,54.4c-0.5,0-0.9,0-1.4,0c0,0,0-0.1,0-0.1c0-4.8,0-9.6,0-14.5c0-1.2,0-2.3,0-3.5c0-0.3,0-0.6,0-0.9   c0,0,0-0.1,0-0.1c0.5-0.4,1-1,1.4-1.4c1.1-1.1,2.1-2.1,3.2-3.2c1-1,2.1-2.1,3.1-3.1c0.4-0.4,0.8-0.8,1.2-1.2   c0.1-0.1,0.3-0.3,0.5-0.5c0.1,0.1,0.2,0.2,0.3,0.2c0.9,0.9,1.8,1.8,2.8,2.8c2,2,3.9,3.9,5.9,5.9c0.1,0.1,0.2,0.2,0.3,0.3   c0,0,0,0,0,0.1c-0.1,0.6-0.1,1.2,0,1.9c-0.1,1,0,2.1,0,3c0,4.7,0,9.4,0,14.2c0,0,0,0.1,0,0.1C24.1,54.4,18.4,54.4,12.6,54.4z    M40.1,54.4c-2.1,0-4.1,0-6.2,0c0,0,0-0.1,0-0.1c0-3.8,0-7.6,0-11.4c0-1.4,0-2.8,0-4.1c0-0.6,0-1.2,0-1.9c0.2-0.6,0.9-0.4,1.6-0.4   c4.7,0,9.4,0,14.1,0c0.6,0,2.7-0.4,2.9,0.4c0.1,0.4,0,0.9,0,1.2c0,1,0,1.9,0,2.9c0,4.5,0,8.9,0,13.4C48.4,54.4,44.3,54.4,40.1,54.4   z"/></g></svg>