<?xml version="1.0" encoding="UTF-8"?>
<svg clip-rule="evenodd" fill-rule="evenodd" stroke-linejoin="round" stroke-miterlimit="2" version="1.1" viewBox="0 0 512 512" xml:space="preserve" xmlns="http://www.w3.org/2000/svg"><g transform="translate(0,-1024)"><g transform="translate(414.51 1206.7)"><path d="m0-33.25c0-4.827 1.957-9.551 5.369-12.962 3.463-3.462 8.068-5.368 12.968-5.368s9.505 1.906 12.967 5.368c3.412 3.411 5.369 8.135 5.369 12.962v33.239c0 4.899-1.906 9.502-5.378 12.972-3.458 3.462-8.06 5.369-12.959 5.369-4.898 0-9.5-1.907-12.967-5.378-3.462-3.461-5.369-8.064-5.369-12.963zm-30 33.239c0 12.913 5.028 25.051 14.151 34.171 9.126 9.138 21.267 14.17 34.186 14.17 12.92 0 25.061-5.032 34.177-14.161 9.131-9.129 14.159-21.267 14.159-34.18v-33.239c0-12.913-5.028-25.051-14.158-34.178-9.128-9.126-21.266-14.152-34.179-14.152-12.911 0-25.048 5.026-34.177 14.151-9.131 9.128-14.159 21.266-14.159 34.179z" fill-rule="nonzero"/></g><g transform="translate(106 1153.9)"><path d="m0 30h44.335c8.284 0 15-6.716 15-15s-6.716-15-15-15h-44.335c-8.284 0-15 6.716-15 15s6.716 15 15 15" fill-rule="nonzero"/></g><g transform="translate(106,1207.6)"><path d="m0 30h97.168c8.284 0 15-6.715 15-15 0-8.283-6.716-15-15-15h-97.168c-8.284 0-15 6.717-15 15 0 8.285 6.716 15 15 15" fill-rule="nonzero"/></g><g transform="translate(106 1265.3)"><path d="m0 30h31.95c8.284 0 15-6.715 15-15 0-8.283-6.716-15-15-15h-31.95c-8.284 0-15 6.717-15 15 0 8.285 6.716 15 15 15" fill-rule="nonzero"/></g><g transform="translate(140.14 1352.9)"><path d="m0-30h-34.135c-8.284 0-15 6.716-15 15s6.716 15 15 15h34.135c8.284 0 15-6.716 15-15s-6.716-15-15-15" fill-rule="nonzero"/></g><g transform="translate(203.17 1153.9)"><path d="m0 30h85.223c8.284 0 15-6.716 15-15s-6.716-15-15-15h-85.223c-8.284 0-15 6.716-15 15s6.716 15 15 15" fill-rule="nonzero"/></g><g transform="translate(288.39 1237.6)"><path d="m0-30h-32.39c-8.284 0-15 6.717-15 15 0 8.285 6.716 15 15 15h32.39c8.284 0 15-6.715 15-15 0-8.283-6.716-15-15-15" fill-rule="nonzero"/></g><g transform="translate(482,1080.5)"><path d="m0 399h-120.4v-135.83c0-8.284-6.716-15-15-15h-120.85c-8.271 0-15-6.729-15-15 0-8.272 6.729-15 15-15h256.25zm-420.4-87.12v-269.52h270v145.81h-105.85c-24.813 0-45 20.187-45 45 0 24.812 20.187 45 45 45h105.85v33.71zm435.4-123.71h-135.4v-145.81h14.897c8.284 0 15-6.715 15-15 0-8.284-6.716-15-15-15h-165.75v-27.36c0-8.284-6.716-15-15-15s-15 6.716-15 15v27.36h-165.75c-8.284 0-15 6.716-15 15 0 8.285 6.716 15 15 15h16.603v269.52h-16.603c-8.284 0-15 6.716-15 15s6.716 15 15 15h100.47l-28.82 56.284c-3.775 7.373-0.858 16.412 6.516 20.188 2.188 1.121 4.523 1.651 6.824 1.651 5.451 0 10.708-2.982 13.364-8.167l35.82-69.956h30.829v63.12c0 8.284 6.716 15 15 15s15-6.716 15-15v-63.12h30.829l35.819 69.956c2.656 5.185 7.913 8.168 13.364 8.168 2.3 0 4.636-0.531 6.824-1.652 7.374-3.776 10.291-12.815 6.516-20.188l-28.819-56.284h57.07v72.12c0 8.284 6.716 15 15 15h150.4c8.284 0 15-6.716 15-15v-210.83c0-8.284-6.716-15-15-15" fill-rule="nonzero"/></g></g></svg>
