<?xml version='1.0' encoding='utf-8'?>
<!DOCTYPE svg PUBLIC '-//W3C//DTD SVG 1.1//EN' 'http://www.w3.org/Graphics/SVG/1.1/DTD/svg11.dtd'>
<svg version="1.1" xmlns="http://www.w3.org/2000/svg" viewBox="0 0 512 512" xmlns:xlink="http://www.w3.org/1999/xlink" enable-background="new 0 0 512 512">
  <g>
    <g>
      <path d="m157.1,254.1h187.8c11.3,0 20.5-9.1 20.5-20.4 0-11.3-9.2-20.4-20.5-20.4h-187.8c-11.3,0-20.5,9.1-20.5,20.4 0,11.3 9.2,20.4 20.5,20.4z"/>
      <g>
        <path d="m157.1,358.3h187.8c11.3,0 20.5-9.1 20.5-20.4 0-11.3-9.2-20.4-20.5-20.4h-187.8c-11.3,0-20.5,9.1-20.5,20.4 0,11.3 9.2,20.4 20.5,20.4z"/>
        <path d="m429.9,460.1h-334.2c-17.4,0-13.7-11.4-13.7-24.8v-305.3c6.2,2.1 12.8,3.3 19.6,3.3h328.3v326.8zm-328.3-408.2h288.9c-7.6,11.5-7.6,29.3 2.7,40.6h-291.6c-10.8,0-19.6-8.9-19.6-20.3-0.1-11.4 8.7-20.3 19.6-20.3zm347.9,35.7c-0.4,0-6.1,0-6.3,0-9.6-0.4-17.2-8.2-17.2-17.8 0-9.2 7-16.8 15.9-17.7 0,0 5.9-0.1 5.9-0.1 11.3,0 20.5-9.1 20.5-20.4 0-11.3-9.2-20.4-20.5-20.4h-346.2c-33.4-0.2-60.6,26.9-60.6,60.2v363.9c0,36.2 14.4,65.6 54.7,65.6h354.5c11.2,0 20.4-9.1 20.5-20.3l.3-370.2c0-12.5-9.2-22.8-21.5-22.8z"/>
      </g>
    </g>
  </g>
</svg>
